<svg width="328" height="48" fill="none" xmlns="http://www.w3.org/2000/svg"><path d="m123.277.667-12.2 46.8h-13.8l-7.467-30.8-7.733 30.8h-13.8L56.41.667h12.2l6.734 34.066L83.677.667H96.21l8 34.066 6.8-34.066h12.267Zm26.141 47.266c-4.4 0-8.445-1.022-12.133-3.066-3.645-2.045-6.556-4.89-8.734-8.534-2.133-3.689-3.2-7.822-3.2-12.4 0-4.577 1.067-8.689 3.2-12.333 2.178-3.644 5.089-6.489 8.734-8.533C140.973 1.022 145.018 0 149.418 0c4.4 0 8.422 1.022 12.067 3.067 3.689 2.044 6.577 4.889 8.666 8.533 2.134 3.644 3.2 7.756 3.2 12.333 0 4.578-1.066 8.711-3.2 12.4-2.133 3.645-5.022 6.49-8.666 8.534-3.645 2.044-7.667 3.066-12.067 3.066Zm0-10.4c3.733 0 6.711-1.244 8.933-3.733 2.267-2.489 3.4-5.778 3.4-9.867 0-4.133-1.133-7.422-3.4-9.866-2.222-2.49-5.2-3.734-8.933-3.734-3.778 0-6.8 1.223-9.067 3.667-2.222 2.444-3.333 5.756-3.333 9.933 0 4.134 1.111 7.445 3.333 9.934 2.267 2.444 5.289 3.666 9.067 3.666Zm54.142 9.934L193.827 29.8h-2.734v17.667h-11.4V.667h19.134c3.689 0 6.822.644 9.4 1.933 2.622 1.289 4.578 3.067 5.866 5.333 1.289 2.223 1.934 4.711 1.934 7.467 0 3.111-.889 5.889-2.667 8.333-1.733 2.445-4.311 4.178-7.733 5.2l10.8 18.534H203.56Zm-12.467-25.734h7.067c2.089 0 3.645-.51 4.667-1.533 1.066-1.022 1.6-2.467 1.6-4.333 0-1.778-.534-3.178-1.6-4.2-1.022-1.023-2.578-1.534-4.667-1.534h-7.067v11.6Zm60.933 25.734L236.292 26.8v20.667h-11.4V.667h11.4V21.2l15.6-20.533h13.4L247.159 23.6l18.8 23.867h-13.933Zm34.575.466c-3.422 0-6.489-.555-9.2-1.666-2.711-1.111-4.889-2.756-6.534-4.934-1.6-2.177-2.444-4.8-2.533-7.866h12.133c.178 1.733.778 3.066 1.8 4 1.023.889 2.356 1.333 4 1.333 1.689 0 3.023-.378 4-1.133.978-.8 1.467-1.89 1.467-3.267 0-1.156-.4-2.111-1.2-2.867-.755-.755-1.711-1.377-2.867-1.866-1.111-.49-2.711-1.045-4.8-1.667-3.022-.933-5.488-1.867-7.4-2.8-1.911-.933-3.555-2.311-4.933-4.133-1.378-1.823-2.067-4.2-2.067-7.134 0-4.355 1.578-7.755 4.734-10.2C276.356 1.244 280.467 0 285.534 0c5.156 0 9.311 1.244 12.467 3.733 3.155 2.445 4.844 5.867 5.066 10.267h-12.333c-.089-1.511-.644-2.689-1.667-3.533-1.022-.89-2.333-1.334-3.933-1.334-1.378 0-2.489.378-3.333 1.134-.845.71-1.267 1.755-1.267 3.133 0 1.511.711 2.689 2.133 3.533 1.423.845 3.645 1.756 6.667 2.734 3.022 1.022 5.467 2 7.333 2.933 1.912.933 3.556 2.289 4.934 4.067 1.378 1.777 2.066 4.066 2.066 6.866 0 2.667-.688 5.09-2.066 7.267-1.334 2.178-3.289 3.911-5.867 5.2-2.578 1.289-5.622 1.933-9.133 1.933Zm29.415.067c-2 0-3.644-.578-4.933-1.733-1.244-1.2-1.867-2.667-1.867-4.4 0-1.778.623-3.267 1.867-4.467 1.289-1.2 2.933-1.8 4.933-1.8 1.956 0 3.556.6 4.8 1.8 1.289 1.2 1.934 2.689 1.934 4.467 0 1.733-.645 3.2-1.934 4.4-1.244 1.155-2.844 1.733-4.8 1.733Z" fill="#111"/><path fill="#DCFF07" d="M0 32h40v16H0z"/></svg>