<svg width="291" height="53" fill="none" xmlns="http://www.w3.org/2000/svg"><path d="M248.53 52.56c-5.568 0-10.128-1.44-13.68-4.32-3.552-2.88-5.712-6.72-6.48-11.52l11.016-2.736c.528 2.88 1.608 5.04 3.24 6.48 1.68 1.392 3.768 2.088 6.264 2.088 1.248 0 2.352-.192 3.312-.576 1.008-.384 1.8-.96 2.376-1.728.576-.768.864-1.68.864-2.736 0-.96-.288-1.8-.864-2.52-.576-.768-1.512-1.488-2.808-2.16-1.296-.72-3.024-1.488-5.184-2.304-3.408-1.344-6.192-2.76-8.352-4.248-2.16-1.536-3.744-3.288-4.752-5.256-1.008-1.968-1.512-4.224-1.512-6.768 0-2.784.672-5.232 2.016-7.344 1.392-2.16 3.312-3.84 5.76-5.04C242.242.624 245.122 0 248.386 0c3.504 0 6.6.816 9.288 2.448 2.736 1.584 4.92 4.008 6.552 7.272l-9 5.472c-.912-1.68-1.992-2.952-3.24-3.816-1.2-.912-2.52-1.368-3.96-1.368-.864 0-1.656.168-2.376.504a4.233 4.233 0 0 0-1.728 1.44c-.432.576-.648 1.272-.648 2.088 0 .816.24 1.584.72 2.304.528.72 1.464 1.464 2.808 2.232 1.344.72 3.216 1.536 5.616 2.448 3.216 1.2 5.856 2.52 7.92 3.96 2.112 1.44 3.696 3.12 4.752 5.04 1.056 1.872 1.584 4.128 1.584 6.768 0 3.072-.768 5.808-2.304 8.208-1.488 2.352-3.6 4.2-6.336 5.544-2.688 1.344-5.856 2.016-9.504 2.016Zm-59.114-15.624V22.68l20.088-21.384h15.192l-35.28 35.64Zm-9.072 14.544V1.296h11.304V51.48h-11.304Zm31.104 0-15.12-24.12 8.424-7.848L224.84 51.48h-13.392Zm-78.703 0V1.296h17.64c4.224 0 7.608.624 10.152 1.872 2.544 1.2 4.392 2.928 5.544 5.184 1.152 2.208 1.728 4.8 1.728 7.776 0 4.896-1.392 8.64-4.176 11.232-2.784 2.544-6.696 3.936-11.736 4.176h-7.848V51.48h-11.304Zm26.712 0-12.312-21.168 11.592-1.368 13.824 22.536h-13.104Zm-15.408-30.024h5.184c1.2 0 2.352-.096 3.456-.288 1.104-.24 2.016-.72 2.736-1.44.72-.768 1.08-1.92 1.08-3.456s-.36-2.64-1.08-3.312c-.72-.72-1.632-1.152-2.736-1.296a20.146 20.146 0 0 0-3.456-.288h-5.184v10.08Zm-45.365 31.32c-4.848 0-9.12-1.104-12.816-3.312-3.696-2.208-6.576-5.28-8.64-9.216-2.064-3.984-3.096-8.592-3.096-13.824 0-5.28 1.032-9.888 3.096-13.824 2.064-3.984 4.944-7.08 8.64-9.288C89.564 1.104 93.836 0 98.684 0c4.896 0 9.192 1.104 12.888 3.312 3.696 2.16 6.576 5.232 8.64 9.216 2.064 3.936 3.096 8.568 3.096 13.896 0 5.28-1.056 9.912-3.168 13.896-2.064 3.936-4.944 7.008-8.64 9.216-3.696 2.16-7.968 3.24-12.816 3.24Zm0-10.8c2.736 0 5.088-.624 7.056-1.872 1.968-1.296 3.48-3.096 4.536-5.4 1.104-2.352 1.656-5.112 1.656-8.28 0-3.216-.552-5.976-1.656-8.28-1.056-2.352-2.568-4.152-4.536-5.4-1.968-1.296-4.32-1.944-7.056-1.944-2.688 0-5.04.624-7.056 1.872-1.968 1.248-3.504 3.048-4.608 5.4-1.056 2.304-1.584 5.088-1.584 8.352 0 3.216.528 6 1.584 8.352 1.104 2.304 2.64 4.08 4.608 5.328 2.016 1.248 4.368 1.872 7.056 1.872ZM15.336 51.48 0 1.296h11.808l9.648 32.76 8.28-29.736h11.088l8.28 29.736 9.648-32.76H70.56L55.224 51.48H44.352L34.344 17.784h1.872L26.208 51.48H15.336Z" fill="#111"/><rect x="275" y="37" width="16" height="16" rx="8" fill="#DCFF07"/></svg>