<svg width="328" height="48" viewBox="0 0 328 48" fill="none" xmlns="http://www.w3.org/2000/svg">
<path d="M123.277 0.666666L111.077 47.4667H97.2768L89.8102 16.6667L82.0768 47.4667H68.2768L56.4102 0.666666H68.6102L75.3435 34.7333L83.6768 0.666666H96.2102L104.21 34.7333L111.01 0.666666H123.277Z" fill="#111111"/>
<path d="M149.418 47.9333C145.018 47.9333 140.973 46.9111 137.285 44.8667C133.64 42.8222 130.729 39.9778 128.551 36.3333C126.418 32.6444 125.351 28.5111 125.351 23.9333C125.351 19.3556 126.418 15.2444 128.551 11.6C130.729 7.95555 133.64 5.11111 137.285 3.06667C140.973 1.02222 145.018 0 149.418 0C153.818 0 157.84 1.02222 161.485 3.06667C165.174 5.11111 168.062 7.95555 170.151 11.6C172.285 15.2444 173.351 19.3556 173.351 23.9333C173.351 28.5111 172.285 32.6444 170.151 36.3333C168.018 39.9778 165.129 42.8222 161.485 44.8667C157.84 46.9111 153.818 47.9333 149.418 47.9333ZM149.418 37.5333C153.151 37.5333 156.129 36.2889 158.351 33.8C160.618 31.3111 161.751 28.0222 161.751 23.9333C161.751 19.8 160.618 16.5111 158.351 14.0667C156.129 11.5778 153.151 10.3333 149.418 10.3333C145.64 10.3333 142.618 11.5556 140.351 14C138.129 16.4444 137.018 19.7556 137.018 23.9333C137.018 28.0667 138.129 31.3778 140.351 33.8667C142.618 36.3111 145.64 37.5333 149.418 37.5333Z" fill="#111111"/>
<path d="M203.56 47.4667L193.827 29.8H191.093V47.4667H179.693V0.666666H198.827C202.516 0.666666 205.649 1.31111 208.227 2.6C210.849 3.88889 212.805 5.66666 214.093 7.93333C215.382 10.1556 216.027 12.6444 216.027 15.4C216.027 18.5111 215.138 21.2889 213.36 23.7333C211.627 26.1778 209.049 27.9111 205.627 28.9333L216.427 47.4667H203.56ZM191.093 21.7333H198.16C200.249 21.7333 201.805 21.2222 202.827 20.2C203.893 19.1778 204.427 17.7333 204.427 15.8667C204.427 14.0889 203.893 12.6889 202.827 11.6667C201.805 10.6444 200.249 10.1333 198.16 10.1333H191.093V21.7333Z" fill="#111111"/>
<path d="M252.026 47.4667L236.292 26.8V47.4667H224.892V0.666666H236.292V21.2L251.892 0.666666H265.292L247.159 23.6L265.959 47.4667H252.026Z" fill="#111111"/>
<path d="M286.601 47.9333C283.179 47.9333 280.112 47.3778 277.401 46.2667C274.69 45.1556 272.512 43.5111 270.867 41.3333C269.267 39.1556 268.423 36.5333 268.334 33.4667H280.467C280.645 35.2 281.245 36.5333 282.267 37.4667C283.29 38.3556 284.623 38.8 286.267 38.8C287.956 38.8 289.29 38.4222 290.267 37.6667C291.245 36.8667 291.734 35.7778 291.734 34.4C291.734 33.2444 291.334 32.2889 290.534 31.5333C289.779 30.7778 288.823 30.1556 287.667 29.6667C286.556 29.1778 284.956 28.6222 282.867 28C279.845 27.0667 277.379 26.1333 275.467 25.2C273.556 24.2667 271.912 22.8889 270.534 21.0667C269.156 19.2444 268.467 16.8667 268.467 13.9333C268.467 9.57778 270.045 6.17778 273.201 3.73333C276.356 1.24444 280.467 0 285.534 0C290.69 0 294.845 1.24444 298.001 3.73333C301.156 6.17778 302.845 9.6 303.067 14H290.734C290.645 12.4889 290.09 11.3111 289.067 10.4667C288.045 9.57778 286.734 9.13333 285.134 9.13333C283.756 9.13333 282.645 9.51111 281.801 10.2667C280.956 10.9778 280.534 12.0222 280.534 13.4C280.534 14.9111 281.245 16.0889 282.667 16.9333C284.09 17.7778 286.312 18.6889 289.334 19.6667C292.356 20.6889 294.801 21.6667 296.667 22.6C298.579 23.5333 300.223 24.8889 301.601 26.6667C302.979 28.4444 303.667 30.7333 303.667 33.5333C303.667 36.2 302.979 38.6222 301.601 40.8C300.267 42.9778 298.312 44.7111 295.734 46C293.156 47.2889 290.112 47.9333 286.601 47.9333Z" fill="#111111"/>
<path d="M316.016 48C314.016 48 312.372 47.4222 311.083 46.2667C309.839 45.0667 309.216 43.6 309.216 41.8667C309.216 40.0889 309.839 38.6 311.083 37.4C312.372 36.2 314.016 35.6 316.016 35.6C317.972 35.6 319.572 36.2 320.816 37.4C322.105 38.6 322.75 40.0889 322.75 41.8667C322.75 43.6 322.105 45.0667 320.816 46.2667C319.572 47.4222 317.972 48 316.016 48Z" fill="#111111"/>
<rect y="32" width="40" height="16" fill="#DCFF07"/>
</svg>
