<svg width="291" height="53" viewBox="0 0 291 53" fill="none" xmlns="http://www.w3.org/2000/svg">
<path d="M248.53 52.56C242.962 52.56 238.402 51.12 234.85 48.24C231.298 45.36 229.138 41.52 228.37 36.72L239.386 33.984C239.914 36.864 240.994 39.024 242.626 40.464C244.306 41.856 246.394 42.552 248.89 42.552C250.138 42.552 251.242 42.36 252.202 41.976C253.21 41.592 254.002 41.016 254.578 40.248C255.154 39.48 255.442 38.568 255.442 37.512C255.442 36.552 255.154 35.712 254.578 34.992C254.002 34.224 253.066 33.504 251.77 32.832C250.474 32.112 248.746 31.344 246.586 30.528C243.178 29.184 240.394 27.768 238.234 26.28C236.074 24.744 234.49 22.992 233.482 21.024C232.474 19.056 231.97 16.8 231.97 14.256C231.97 11.472 232.642 9.024 233.986 6.912C235.378 4.752 237.298 3.072 239.746 1.872C242.242 0.624001 245.122 0 248.386 0C251.89 0 254.986 0.816001 257.674 2.448C260.41 4.032 262.594 6.456 264.226 9.72L255.226 15.192C254.314 13.512 253.234 12.24 251.986 11.376C250.786 10.464 249.466 10.008 248.026 10.008C247.162 10.008 246.37 10.176 245.65 10.512C244.93 10.848 244.354 11.328 243.922 11.952C243.49 12.528 243.274 13.224 243.274 14.04C243.274 14.856 243.514 15.624 243.994 16.344C244.522 17.064 245.458 17.808 246.802 18.576C248.146 19.296 250.018 20.112 252.418 21.024C255.634 22.224 258.274 23.544 260.338 24.984C262.45 26.424 264.034 28.104 265.09 30.024C266.146 31.896 266.674 34.152 266.674 36.792C266.674 39.864 265.906 42.6 264.37 45C262.882 47.352 260.77 49.2 258.034 50.544C255.346 51.888 252.178 52.56 248.53 52.56Z" fill="#111111"/>
<path d="M189.416 36.9359V22.6799L209.504 1.2959H224.696L189.416 36.9359ZM180.344 51.4799V1.2959H191.648V51.4799H180.344ZM211.448 51.4799L196.328 27.3599L204.752 19.5119L224.84 51.4799H211.448Z" fill="#111111"/>
<path d="M132.745 51.4799V1.2959H150.385C154.609 1.2959 157.993 1.9199 160.537 3.1679C163.081 4.3679 164.929 6.0959 166.081 8.3519C167.233 10.5599 167.809 13.1519 167.809 16.1279C167.809 21.0239 166.417 24.7679 163.633 27.3599C160.849 29.9039 156.937 31.2959 151.897 31.5359C150.553 31.5359 149.257 31.5359 148.009 31.5359C146.761 31.5359 145.777 31.5359 145.057 31.5359H144.049V51.4799H132.745ZM159.457 51.4799L147.145 30.3119L158.737 28.9439L172.561 51.4799H159.457ZM144.049 21.4559H149.233C150.433 21.4559 151.585 21.3599 152.689 21.1679C153.793 20.9279 154.705 20.4479 155.425 19.7279C156.145 18.9599 156.505 17.8079 156.505 16.2719C156.505 14.7359 156.145 13.6319 155.425 12.9599C154.705 12.2399 153.793 11.8079 152.689 11.6639C151.585 11.4719 150.433 11.3759 149.233 11.3759H144.049V21.4559Z" fill="#111111"/>
<path d="M98.6838 52.776C93.8358 52.776 89.5638 51.672 85.8678 49.464C82.1718 47.256 79.2918 44.184 77.2278 40.248C75.1638 36.264 74.1318 31.656 74.1318 26.424C74.1318 21.144 75.1638 16.536 77.2278 12.6C79.2918 8.616 82.1718 5.52 85.8678 3.312C89.5638 1.104 93.8358 0 98.6838 0C103.58 0 107.876 1.104 111.572 3.312C115.268 5.472 118.148 8.544 120.212 12.528C122.276 16.464 123.308 21.096 123.308 26.424C123.308 31.704 122.252 36.336 120.14 40.32C118.076 44.256 115.196 47.328 111.5 49.536C107.804 51.696 103.532 52.776 98.6838 52.776ZM98.6838 41.976C101.42 41.976 103.772 41.352 105.74 40.104C107.708 38.808 109.22 37.008 110.276 34.704C111.38 32.352 111.932 29.592 111.932 26.424C111.932 23.208 111.38 20.448 110.276 18.144C109.22 15.792 107.708 13.992 105.74 12.744C103.772 11.448 101.42 10.8 98.6838 10.8C95.9958 10.8 93.6438 11.424 91.6278 12.672C89.6598 13.92 88.1238 15.72 87.0198 18.072C85.9638 20.376 85.4358 23.16 85.4358 26.424C85.4358 29.64 85.9638 32.424 87.0198 34.776C88.1238 37.08 89.6598 38.856 91.6278 40.104C93.6438 41.352 95.9958 41.976 98.6838 41.976Z" fill="#111111"/>
<path d="M15.336 51.4799L0 1.2959H11.808L21.456 34.0559L29.736 4.3199H40.824L49.104 34.0559L58.752 1.2959H70.56L55.224 51.4799H44.352L34.344 17.7839H36.216L26.208 51.4799H15.336Z" fill="#111111"/>
<rect x="275" y="37" width="16" height="16" rx="8" fill="#DCFF07"/>
</svg>
